

General
ID                               : 6 (0x6)
Complete name                    : D:\TOORENT FOR UPLOAD\Shakira Objection Tango 1080P 1920x1080 by RoYStaR\Shakira Objection Tango 1080P 1920x1080 by RoYStaR.mkv
Format                           : MPEG-TS
File size                        : 290 MiB
Duration                         : 4mn 22s
Overall bit rate                 : 9 266 Kbps

Video
ID                               : 326 (0x146)
Menu ID                          : 1 (0x1)
Format                           : AVC
Format/Info                      : Advanced Video Codec
Format profile                   : Main@L4.0
Format settings, CABAC           : Yes
Format settings, ReFrames        : 4 frames
Codec ID                         : 27
Duration                         : 4mn 21s
Bit rate                         : 8 420 Kbps
Width                            : 1 920 pixels
Height                           : 1 080 pixels
Display aspect ratio             : 16:9
Frame rate                       : 25.000 fps
Standard                         : Component
Color space                      : YUV
Chroma subsampling               : 4:2:0
Bit depth                        : 8 bits
Scan type                        : Interlaced
Scan order                       : Top Field First
Bits/(Pixel*Frame)               : 0.162
Stream size                      : 263 MiB (91%)
Language                         : English
Color primaries                  : BT.709-5, BT.1361, IEC 61966-2-4, SMPTE RP177
Transfer characteristics         : BT.709-5, BT.1361
Matrix coefficients              : BT.709-5, BT.1361, IEC 61966-2-4 709, SMPTE RP177

Audio
ID                               : 406 (0x196)
Menu ID                          : 1 (0x1)
Format                           : AC-3
Format/Info                      : Audio Coding 3
Mode extension                   : CM (complete main)
Codec ID                         : 129
Duration                         : 4mn 21s
Bit rate mode                    : Constant
Bit rate                         : 384 Kbps
Channel(s)                       : 2 channels
Channel positions                : Front: L R
Sampling rate                    : 48.0 KHz
Bit depth                        : 16 bits
Compression mode                 : Lossy
Delay relative to video          : 112ms
Stream size                      : 12.0 MiB (4%)

Screenshot:-
 
http://img835.imageshack.us/img835/4818/bscap0000ls.jpg
 
http://img600.imageshack.us/img600/2201/bscap0004rc.jpg
 
http://img10.imageshack.us/img10/3997/bscap0015br.jpg
 
http://img32.imageshack.us/img32/2095/bscap0016mk.jpg




This is quality upload. . . . . . . 

Because i am upload only quality torrent....




ENJOY................ *RoY StaR*

